/* XPM */
static char *e000bf47fa5149d8867316c4abab5c63itln3cFiwVSxvJD7[] = {
/* columns rows colors chars-per-pixel */
"64 64 128 2 ",
"   c #2B0B00",
".  c #2D0B00",
"X  c #2E0C00",
"o  c #330E00",
"O  c #350F01",
"+  c #251400",
"@  c #391101",
"#  c #3C1201",
"$  c #361C00",
"%  c #3E2101",
"&  c #431603",
"*  c #441603",
"=  c #431606",
"-  c #451705",
";  c #481803",
":  c #4C1B05",
">  c #4E1C06",
",  c #511D05",
"<  c #541F05",
"1  c #452502",
"2  c #562105",
"3  c #592206",
"4  c #5B2406",
"5  c #5E2506",
"6  c #522B00",
"7  c #602706",
"8  c #632907",
"9  c #672D07",
"0  c #602409",
"q  c #672A0A",
"w  c #6B2F09",
"e  c #6D2D0B",
"r  c #682A0E",
"t  c #742F0E",
"y  c #6E310A",
"u  c #70330A",
"i  c #72340B",
"p  c #75360B",
"a  c #7A3A0D",
"s  c #7C3B0E",
"d  c #7E3C0F",
"f  c #793613",
"g  c #7D3410",
"h  c #7C4018",
"j  c #6F6F6F",
"k  c #833912",
"l  c #813F10",
"z  c #893B14",
"x  c #8E3E16",
"c  c #854111",
"v  c #884413",
"b  c #894514",
"n  c #8F4615",
"m  c #8D4817",
"M  c #934A15",
"N  c #924C17",
"B  c #944D17",
"V  c #954118",
"C  c #9C461B",
"Z  c #914B19",
"A  c #954E19",
"S  c #9E4B1C",
"D  c #98501A",
"F  c #9D551D",
"G  c #A54B1E",
"H  c #9E4C20",
"J  c #9F5021",
"K  c #AD4F20",
"L  c #A05420",
"P  c #AC5524",
"I  c #A15820",
"U  c #A75C23",
"Y  c #AF5A26",
"T  c #B45423",
"R  c #B65525",
"E  c #BB5826",
"W  c #B85C28",
"Q  c #A86029",
"!  c #AD682F",
"~  c #B06229",
"^  c #BD602B",
"/  c #BE682F",
"(  c #B86C30",
")  c #BF793A",
"_  c #C05D28",
"`  c #C7622B",
"'  c #C2612C",
"]  c #C4622C",
"[  c #C4662E",
"{  c #CA662E",
"}  c #C36931",
"|  c #C46930",
" . c #CC6930",
".. c #C96C30",
"X. c #CF6D33",
"o. c #C17333",
"O. c #CF7335",
"+. c #CC7939",
"@. c #D27034",
"#. c #D47337",
"$. c #D57638",
"%. c #D77B3A",
"&. c #D27C39",
"*. c #D97E3B",
"=. c #D4813C",
"-. c #DB823D",
";. c #DE873F",
":. c #C18142",
">. c #D98041",
",. c #D88842",
"<. c #DF8941",
"1. c #DC9149",
"2. c #E08B42",
"3. c #E18F43",
"4. c #E18E44",
"5. c #E29044",
"6. c #E49246",
"7. c #E59548",
"8. c #E1944E",
"9. c #E5994C",
"0. c #E69D51",
"q. c #E8A053",
"w. c #E8A357",
"e. c #E6A55C",
"r. c #E9A65A",
"t. c #EAA85D",
"y. c #8B8B8B",
"u. c #FFD19E",
/* pixels */
"j j j j j j j j j j j j j j j j j j j j j j j j j j j j j j j j j j j j j j j j j j j j j j j j j j j j j j j j j j j j j j j j ",
"j y.y.y.y.y.y.y.y.y.y.y.y.y.y.y.y.y.y.y.y.y.y.y.y.y.y.y.y.y.y.y.y.y.y.y.y.y.y.y.y.y.y.y.y.y.y.y.y.y.y.y.y.y.y.y.y.y.y.y.y.y.y.j ",
"j y.6 6 6 6 6 6 6 6 6 6 6 6 6 6 6 6 6 6 6 6 6 6 6 6 6 6 6 6 6 6 6 6 6 6 6 6 6 6 6 6 6 6 6 6 6 6 6 6 6 6 6 6 6 6 6 6 6 6 6 6 y.j ",
"j y.6 6 6 6 6 6 6 6 6 6 6 6 6 6 6 6 6 6 6 6 6 6 6 6 6 6 6 6 6 6 6 6 6 6 6 6 6 6 6 6 6 6 6 6 6 6 6 6 6 6 6 6 6 6 6 6 6 6 6 6 y.j ",
"j y.6 6 6 6 6 6 6 6 6 6 6 6 6 6 6 6 6 6 6 6 6 6 6 6 6 6 6 6 6 6 6 6 6 6 6 6 6 6 6 6 6 6 6 6 6 6 6 6 6 6 6 6 6 6 6 6 6 6 6 6 y.j ",
"j y.6 6 6 6 6 6 6 6 6 6 6 6 6 6 6 6 6 6 6 6 6 6 6 6 6 6 6 * * * * * * * * * * 6 6 6 6 6 6 6 6 6 6 6 6 6 6 6 6 6 6 6 6 6 6 6 y.j ",
"j y.6 6 6 6 6 6 6 6 6 6 6 6 6 6 6 6 6 6 6 6 6 6 6 6 6 * * * ; * > 8 q q 9 5 - * , , * 6 6 6 6 6 6 6 6 6 6 6 6 6 6 6 6 6 6 6 y.j ",
"j y.6 6 6 6 6 6 6 6 6 6 6 6 6 6 6 6 6 6 6 6 6 6 * > o o o & ; * > q < < 8 w q q 3 , < 7 7 s 6 6 6 6 6 6 6 6 6 6 6 6 6 6 6 6 y.j ",
"j y.6 6 6 6 6 6 6 6 6 6 6 6 6 6 6 6 6 6 6 6 6 = O @ X   @ & * : < < ; ; , 8 i p 9 4 < 5 d l s 6 6 6 6 6 6 6 6 6 6 6 6 6 6 6 y.j ",
"j y.6 6 6 6 6 6 6 6 6 6 6 6 6 6 6 6 6 6 6 6 = #       @ * * * , < ; ; ; ; 2 p d a q , 3 c m c l 6 6 6 6 6 6 6 6 6 6 6 6 6 6 y.j ",
"j y.6 6 6 6 6 6 6 6 6 6 6 6 6 6 6 6 6 6 6 * @       @ * * ; * ; ; ; ; : > 3 p m c w < < 3 c Z b l 6 6 6 6 6 6 6 6 6 6 6 6 6 y.j ",
"j y.6 6 6 6 6 6 6 6 6 6 6 6 6 6 6 6 6 6 - O       # & * ; ; * * ; ; : 7 9 w i a d i 7 < 2 i b Z n n 6 6 6 6 6 6 6 6 6 6 6 6 y.j ",
"j y.6 6 6 6 6 6 6 6 6 6 6 6 6 6 6 6 6 6 , @   X @ & * * * ; @ X # 7 7 9 y 8 * * ; > < < 2 y d Z F n 6 6 6 6 6 6 6 6 6 6 6 6 y.j ",
"j y.6 6 6 6 6 6 6 6 6 6 6 6 6 6 6 6 6 6 * o   X & * * * & @   o > w w 2 : ; # # # 0 t , , 7 y c F F A 6 6 6 6 6 6 6 6 6 6 6 y.j ",
"j y.6 6 6 6 6 6 6 6 6 6 6 6 6 6 6 6 6 * o   X O & * ; * #   o > 8 9 4 & O > h h h L Y h h i 8 w b I b 6 6 6 6 6 6 6 6 6 6 6 y.j ",
"j y.6 6 6 6 6 6 6 6 6 6 6 6 6 6 6 6 6 * o   o * * & & #   X < 8 8 4 @ 3 q m ,.3.3.3.5.5.3.| k 3 i b c s 6 6 6 6 6 6 6 6 6 6 y.j ",
"j y.1 6 1 6 6 6 6 6 6 6 6 6 6 6 6 6 * o X X o * & o X X X 2 8 q 2 @ 7 G [ &.5.w.r.r.r.r.w.6.O.Z : i m B A 6 6 6 1 6 1 6 1 1 y.j ",
"j y.6 1 6 6 6 6 6 6 6 6 6 6 6 6 6 6 - o X # & O O X   o > 8 7 : & q P  .$.2.q.t.t.t.t.t.t.r.7.+.J q b D N 1 6 1 6 1 6 1 6 6 y.j ",
"j y.1 6 1 6 6 6 6 6 6 6 6 6 6 6 6 - # o X @ @ X X X @ : 5 2 * & 3 C X.#.%.2.t.t.t.t.t.t.t.t.0.;.| 4 d D F 6 1 6 1 6 1 6 1 1 y.j ",
"j y.6 1 6 1 6 1 6 1 6 1 6 1 6 6 6 & X X X X X X X X ; 7 3 # O 2 x ] @.$.%.2.t.t.t.t.t.t.t.t.0.;.[ , u D F M 6 1 6 1 6 1 1 1 y.j ",
"j y.6 6 1 6 1 6 1 6 1 6 1 6 1 6 1 * o X o X X X X o ; 2 * O 3 x T ^ / | O.<.r.t.t.t.t.t.t.t.0.;.[ > w A F M 1 6 1 6 1 1 1 1 y.j ",
"j y.1 1 6 1 6 1 6 1 6 1 6 1 6 1 6 & X X o o o X X @ * & o , V T V > > : z [ 1.r.t.t.t.t.t.t.0.;.| : , c F M 6 1 6 1 1 1 1 1 y.j ",
"j y.1 6 1 6 1 6 1 6 1 6 1 6 1 6 * o X X & ; & X X @ @ o @ g K T V g t & & 7 h =.q.t.t.t.t.t.0.;.[ : ; l F M 1 6 1 1 1 1 1 1 y.j ",
"j y.1 1 6 1 6 1 6 1 6 1 6 1 6 > #   o 3 k V y X X o o # q G E _ W ^ ) ! m q : c :.w.t.t.t.q.7.;.| : ; d I F 1 1 1 1 1 1 1 1 y.j ",
"j y.1 1 1 6 1 6 1 6 1 6 1 6 1 > # X & z G P x * o X & 8 G ]  .#.X.I ) :.Q z 0 0 ! 9.w.0.:.( ! Q Z & * a F F 1 1 1 1 1 1 1 1 y.j ",
"j y.1 1 1 1 1 1 1 1 1 1 1 1 1 , # O 2 C k g k t # & t G  .@.-.=.L ; @ O : t G G +.5.5.&.w < < : @ o * y Z F 1 1 1 1 1 1 1 1 y.j ",
"j y.1 1 1 1 1 1 1 1 1 1 1 1 , : # O 3 C z C G g , z E  .@.;.0.! f H * u.S V , t o.6.;.^ q z ( Q 4 @ & y A U F 1 1 1 1 1 1 1 y.j ",
"j y.1 1 1 1 1 1 1 1 1 1 1 1 , > # O 3 C z z V C V G ^ X.#.2.7.,.:.O.H R #./ z K &.6.+.z * : 8 h H * & y A U D 1 1 1 1 1 1 1 y.j ",
"j y.1 1 1 1 1 1 1 1 1 1 1 1 , > & o ; z V z x K K W { X.#.2.5.7.9.<.$.O.-.&.E { $.;.o.0 o * , g f # & y A U B 1 1 1 1 1 1 1 y.j ",
"j y.1 1 1 1 1 1 1 1 1 1 1 1 < > & X O q x C C K K [ X.@.#.2.3.3.3.3.3.3.3.-.X.X.X.*.o.0 w u.` H & o & y A U B 1 1 1 1 1 1 1 y.j ",
"j y.1 1 1 1 1 1 1 1 1 1 1 : > , & X o & 0 n ' G K [ @.@.$.2.5.5.5.5.5.3.2.%.] {  .*.o.k | E ..Q & o & y A U B 1 1 1 1 1 1 1 y.j ",
"j y.1 1 1 1 1 1 1 1 1 1 1 : > , & X o o O = 1 g K { @.$.2.5.5.9.w.r.w.6.*.^ x K ] -.o.d =.*. .C o o & y A U B 1 1 1 1 1 1 1 y.j ",
"j y.1 1 1 1 1 1 1 1 1 1 1 : 2 3 * X o o o o O q W X.@.%.5.6.0.r.t.r.9.3.~ C ^ +.1.w.:.d ,.3.%.H o o & y D U B 1 1 1 1 1 1 1 y.j ",
"j y.1 % 1 % 1 % 1 1 1 1 1 : 4 5 ; X o o o o # 8 W X.@.%.5.6.9.0.1.&.O.5.o.Y ] ~ o.+.Q u 1.7.-.J o o & y D F B 1 1 1 1 1 1 1 y.j ",
"j y.1 1 % 1 % 1 % 1 % 1 1 : 4 5 ; o O o o o & q W X.@.%.5.6.5.;...K _ ,.6.-.[ V V V x b 0.9.*.H o o & u D D D 1 % 1 % 1 1 1 y.j ",
"j y.% % 1 % 1 % 1 % 1 % , < 4 4 * o & O o @ ; e T  .@.%.5.6.7.&.P C ] { ,.q.9.O.J x J ,.w.9.X.z o o & p A Z I % 1 % 1 1 1 1 y.j ",
"j y.1 1 % 1 % 1 % 1 % 1 < 5 5 , # O ; * o # > e T  .@.%.5.6.r.0.;.&.T K X.6.0.9.1.=.O.3.6.3.Y q o & < d D Z I 1 % 1 % 1 1 1 y.j ",
"j y.% % % % 1 % 1 % 1 % 2 7 5 & o @ < ; O # > e T  .@.%.5.7.r.w.9.q.=.O.[ _ ^ [ [ ^ ..3.2.X.d # o * q b D n 1 % 1 % 1 1 1 1 y.j ",
"j y.% % % % % % % 1 % , 4 7 2 @ o * 3 : O # > e K _  .#.;.6.0.0.9.t.q.9.,.+.+.X.| ..&.3.;.P 5 o # ; w Z F n % 1 % 1 % % 1 % y.j ",
"j y.% % % % % % % % > 3 7 5 : O @ > 3 > O # , e T E _  .%.3.6.6.9.w.t.t.w.q.0.6.;.;.3.2.o.d ; O ; : y D I n % % % % % % % 1 y.j ",
"j y.% % % % % % % % > 3 7 4 ; O # , 4 > O & 3 f ] _ T _ O.<.5.6.6.7.r.t.0.6.5.5.3.3.2.+.c * X O ; > y D U M % % % % % % 1 % y.j ",
"j y.% % % % % % % % > 4 4 ; O o ; 5 5 > O , k K X.@.] E _ $.<.6.6.7.r.t.r.0.5.5.5.3.o.c * o X O : 3 f F ~ F % % % % % % % 1 y.j ",
"j y.% % % % % % % * < 7 2 O o & < 7 7 3 # 3 V [ -.*.X.] E ] #.;.6.7.r.t.r.w.0.5.5.( d * o X X @ , y l I ! F % % % % % % 1 % y.j ",
"j y.% % % % % % % , 5 8 < o o * 3 8 7 < ; t K X.3.<.%.@.] E ] X.*.6.9.w.t.r.q.3.( h ; X o o O & 2 p c I ! F % % % % % % % % y.j ",
"j y.% % % % % % % , 4 7 , o o ; 3 7 3 ; 8 C ] %.3.6.;.%.@.] _ _ { -.;.5.8.8.1.o.a ; o O o o & > 4 a b I ~ A % % % % % % % % y.j ",
"j y.% % % % % % % , 3 < & o O < 7 3 ; 3 z W %.3.6.6.6.2.%.@.] _ _ _ { { ] ^ P e & X @ ; O o & < q l D F N % % % % % % % % % y.j ",
"j y.% % % % % % % , 3 ; o o , 4 2 , 3 g W X.%.5.6.6.6.5.2.%.#.{ _ E C V q * & O o @ ; ; O & > 4 u c U U N % % % % % % % % % y.j ",
"j y.% % % % % % , : < & o o : 3 , : t Y  .*.2.6.6.6.6.6.5.2.<.*. ._ K z ,   X X @ ; : ; @ ; , 5 p c Q I N % % % % % % % % % y.j ",
"j y.% % % % % % , , ; @ o o # & : y Y X.%.<.6.6.6.6.6.6.6.6.6.3.*.{ T g ; X X X & : : > < , 3 q u b Q F N % % % % % % % % % y.j ",
"j y.% % % % % % - * O o . . O > t J ^ O.<.6.6.6.6.6.6.6.6.6.6.6.;. .T e & X X o & : , 4 y 2 8 y w Z Q F s % % % % % % % % % y.j ",
"j y.% % % % % % O o o % % + r C | / l / ;.5.6.6.6.6.6.6.6.6.6.6.;. .T t & X o # ; > 4 u i 5 w i w m U D l % % % % % % % % % y.j ",
"j y.% % % % % % % % % + + + } =.3.5.) w ~ ;.6.6.6.6.6.6.6.6.6.6.;. .T t & X O < , 3 y p p a l p w m D A c l % % % % % % % % y.j ",
"j y.% % % % % % + + + + + + @.$.;.6.3.o.h ! 7.6.6.6.6.6.6.6.6.6.;. .T t & X O 4 2 4 p l a l l i 9 d A D m l % % % % % % % % y.j ",
"j y.% % % % % + + + + + + + @.@.%.-.-.*.L Z I ( 3.7.6.6.6.6.6.6.;.{ T t & X O 5 3 4 p c l c l u q p A D A v s % % % % % % $ y.j ",
"j y.% % % + + + + + + + + + >.%.%.%.$.@.#.J f D ! ) =.<.<.<.<.<.*.{ T g : o o 2 4 5 w l b b d y 8 i Z F D m p % % % % % % $ y.j ",
"j y.% + + + + + + + + + + + e.4.<.2.;.$.$.$.$.| 9 l Y X.#...@.X.[ ^ K x q * o ; 7 8 4 y l b d y 8 y b D F Z a % % % % % % $ y.j ",
"j y.+ + + + + + + + + + + + + 2.2.3.3.2.2.2.2.<.=.=.Z f ..C [ D q k 0 , , ; o * 7 w 8 7 i c d w 4 w c D F D n % % % % % % $ y.j ",
"j y.+ + + + + + + + + + + + + 2.<.3.3.3.5.5.5.5.5.5.) ( -.o.=.o.P W P J V q o * 5 y w 9 y p d p 4 7 p Z F F m n % % % % % $ y.j ",
"j y.+ + + + + + + + + + + + + + 2.2.3.3.5.5.5.5.5.5.6.6.5.6.6.<.-.*.*.@.] x o & < q u i a p p p 9 7 y c D F A Z S % % % % $ y.j ",
"j y.+ + + + + + + + + + + + + + + 2.2.3.3.5.5.5.5.5.5.5.5.5.5.5.5.3.3.*.@.P 2 & ; 4 u i c a p i p 9 w d Z F F D A % % % % $ y.j ",
"j y.+ + + + + + + + + + + + + + + + 2.2.3.3.3.5.5.5.5.5.5.5.5.5.5.3.3.3.%.X.W & & 2 w i l c d i p p w p m F I F D N % % % $ y.j ",
"j y.+ + + + + + + + + + + + + + + + + + 2.2.4.4.3.5.5.5.5.5.5.5.5.3.3.3.*.@.^ - # ; 3 w i l c a w p w u l Z F I D N $ $ $ $ y.j ",
"j y.y.y.y.y.y.y.y.y.y.y.y.y.y.y.y.y.y.y.y.y.y.y.y.y.y.y.y.y.y.y.y.y.y.y.y.y.y.y.y.y.y.y.y.y.y.y.y.y.y.y.y.y.y.y.y.y.y.y.y.y.y.j ",
"j j j j j j j j j j j j j j j j j j j j j j j j j j j j j j j j j j j j j j j j j j j j j j j j j j j j j j j j j j j j j j j j "
};
