/* XPM */
static char *lore[] = {
/* columns rows colors chars-per-pixel */
"90 90 183 2",
"   c #2D0B00",
".  c #251400",
"X  c #291500",
"o  c #2D1800",
"O  c #330E00",
"+  c #371000",
"@  c #351B00",
"#  c #3B1201",
"$  c #3B1F00",
"%  c #3E2101",
"&  c #431602",
"*  c #451A03",
"=  c #4B1B04",
"-  c #521E05",
";  c #442401",
":  c #4A2601",
">  c #4C210A",
",  c #4D2800",
"<  c #562105",
"1  c #512108",
"2  c #512A00",
"3  c #562E0F",
"4  c #5B2406",
"5  c #5C2409",
"6  c #5B2E05",
"7  c #5E280A",
"8  c #5B3008",
"9  c #523515",
"0  c #5B3211",
"q  c #5F3D19",
"w  c #602706",
"e  c #612609",
"r  c #632907",
"t  c #652A09",
"y  c #6A2D0A",
"u  c #682D10",
"i  c #643306",
"p  c #603309",
"a  c #6D310A",
"s  c #6C390D",
"d  c #673010",
"f  c #60331B",
"g  c #6F3411",
"h  c #6C391D",
"j  c #722E0D",
"k  c #73340B",
"l  c #743B0D",
"z  c #79330F",
"x  c #7B3B0E",
"c  c #743411",
"v  c #753A15",
"b  c #7C3511",
"n  c #7B3B12",
"m  c #6B4018",
"M  c #7E4113",
"N  c #7C4018",
"B  c #7F4D1F",
"V  c #7B5236",
"C  c #6F6F6F",
"Z  c #777470",
"A  c #7C7771",
"S  c #7E7871",
"D  c #7F7F7F",
"F  c #803E0F",
"G  c #813612",
"H  c #833C12",
"J  c #8B3C15",
"K  c #903F16",
"L  c #844112",
"P  c #804319",
"I  c #8B4514",
"U  c #8C441A",
"Y  c #8D4816",
"T  c #8C491B",
"R  c #924317",
"E  c #944219",
"W  c #924B17",
"Q  c #944D19",
"!  c #9B451A",
"~  c #9B4C1C",
"^  c #96511B",
"/  c #9B531C",
"(  c #845021",
")  c #8C5222",
"_  c #825031",
"`  c #9D4D20",
"'  c #9C5522",
"]  c #9D5C26",
"[  c #A34B1D",
"{  c #A94D1F",
"}  c #A0561F",
"|  c #A44E20",
" . c #AC4F20",
".. c #A55322",
"X. c #A45A23",
"o. c #A55F2A",
"O. c #AC5323",
"+. c #AB5A25",
"@. c #A95D28",
"#. c #B35423",
"$. c #B35926",
"%. c #B45E28",
"&. c #B95725",
"*. c #BC5A26",
"=. c #BB5D29",
"-. c #A7632B",
";. c #AE6027",
":. c #AB632A",
">. c #AD682F",
",. c #AB6A31",
"<. c #B36027",
"1. c #B4622B",
"2. c #B56A2E",
"3. c #BC622B",
"4. c #BB6B2F",
"5. c #B56E33",
"6. c #BC6D31",
"7. c #B67034",
"8. c #B77438",
"9. c #BC7234",
"0. c #BC7638",
"q. c #BF793A",
"w. c #817772",
"e. c #807971",
"r. c #8A7D74",
"t. c #C05E29",
"y. c #C4632C",
"u. c #C2682F",
"i. c #C9662E",
"p. c #C9692F",
"a. c #C46C32",
"s. c #CC6C31",
"d. c #C86D38",
"f. c #C37334",
"g. c #C67835",
"h. c #C37B3A",
"j. c #CC7234",
"k. c #CB7837",
"l. c #CC7C3A",
"z. c #D06E33",
"x. c #D27335",
"c. c #D57638",
"v. c #D57837",
"b. c #D57B3A",
"n. c #D87D3B",
"m. c #C07F40",
"M. c #8E8176",
"N. c #908077",
"B. c #968479",
"V. c #96887B",
"C. c #98867A",
"Z. c #9B8B7D",
"A. c #B58045",
"S. c #CD823D",
"D. c #D4833D",
"F. c #DB843E",
"G. c #D9883F",
"H. c #C18142",
"J. c #CD8744",
"K. c #D78A44",
"L. c #DB8640",
"P. c #DD8A41",
"I. c #D88F48",
"U. c #D7924B",
"Y. c #DA9047",
"T. c #DE934A",
"R. c #DF9E56",
"E. c #D99C6B",
"W. c #D5A374",
"Q. c #D4A579",
"!. c #E18E43",
"~. c #E39145",
"^. c #E3954A",
"/. c #E5994D",
"(. c #E59D51",
"). c #E7A155",
"_. c #E7A458",
"`. c #E8A256",
"'. c #E9A55A",
"]. c #EAA85D",
"[. c #EDAE7A",
"{. c #878686",
"}. c #888786",
/* pixels */
"C C C C C C C C C C C C C C C C C C C C C C C C C C C C C C C C C C C C C C C C C C C C C C C C C C C C C C C C C C C C C C C C C C C C C C C C C C C C C C C C C C C C C C C C C C ",
"C A D D D D D D D D D D D D D D D M.D D D D D D D D D D D D D D D D D D D D D D D r.D D D D D D D D D D D D D D D D D D D D D D D M.D D D D D D D D D D D {.D D D D D D D D D D A C ",
"C D {.S e.e.e.e.e.e.e.e.S e.e.e.e.e.e.e.A S S e.S e.e.e.e.e.e.e.e.e.S e.e.e.e.e.w.e.w.w.S S S S e.e.e.S S e.e.e.e.e.e.e.e.e.e.S e.e.e.e.S e.e.S e.e.e.e.S S S S S e.e.S e.e.e.}.D C ",
"C D S 2 2 2 2 2 2 2 2 2 2 2 2 2 2 2 2 2 , 2 2 2 2 2 2 2 2 2 2 2 2 2 2 2 2 2 2 2 2 2 2 2 2 2 2 2 2 2 2 2 2 2 2 2 2 2 2 2 2 2 2 2 2 2 2 2 , , 2 2 2 2 2 2 2 2 2 2 2 2 2 2 2 2 2 e.D C ",
"C D e.2 2 2 2 2 2 2 2 2 2 2 2 2 2 2 2 2 2 2 2 2 2 2 2 2 2 2 2 2 2 2 2 2 2 2 2 2 2 2 2 2 2 2 2 2 2 2 2 2 2 2 2 2 2 2 2 2 2 2 2 2 2 2 2 2 2 2 2 2 2 2 2 2 2 2 2 2 2 2 2 2 2 2 2 e.D C ",
"C D e.2 2 2 2 2 2 2 2 2 2 2 2 2 2 2 2 2 2 2 2 2 2 2 2 2 2 2 2 2 2 2 2 2 2 2 2 2 2 2 2 2 2 2 2 2 2 2 2 2 2 2 2 2 2 2 2 2 2 2 2 2 2 2 2 2 2 2 2 2 2 2 2 2 2 2 2 2 2 2 2 2 2 2 2 e.{.C ",
"C D S 2 2 2 2 2 2 2 2 2 2 2 2 2 2 2 2 2 2 2 2 2 2 2 2 2 2 2 2 2 2 2 2 2 2 2 2 2 2 2 2 2 2 2 4 2 2 2 2 2 2 2 2 2 2 2 2 2 2 2 2 2 2 2 2 2 2 2 2 2 2 2 2 2 2 2 2 2 2 2 2 2 2 2 2 S D C ",
"C D e.2 2 2 2 2 2 2 2 2 2 2 2 2 2 2 2 2 2 2 2 2 2 2 2 2 2 2 2 2 2 2 2 2 2 2 2 2 , & & & & & & = & & & & & & = 2 2 2 2 2 2 2 2 2 2 2 2 2 2 2 2 2 2 2 2 2 2 2 2 2 2 2 2 2 2 2 2 e.D C ",
"C D e.2 2 2 2 2 2 2 2 2 2 2 2 2 2 2 2 2 2 2 2 2 2 2 2 2 2 2 2 2 2 2 2 2 2 2 = : * & & & & = - - 4 - 4 4 - = & = : < < : : 2 2 2 2 2 2 2 2 2 2 2 2 2 2 2 2 2 2 2 2 2 2 2 2 2 2 S D C ",
"C D e.2 2 2 2 2 2 2 2 2 2 2 2 2 2 2 2 2 2 2 2 2 2 2 2 2 2 2 2 2 2 2 , 2 : : & & & & & & & = - e r r r r w - = = = 1 = = = 2 2 6 2 2 2 2 2 2 2 2 2 2 2 2 2 2 2 2 2 2 2 2 2 2 2 S D C ",
"C D e.2 2 2 2 2 2 2 2 2 2 2 2 2 2 2 2 2 2 2 2 2 2 2 2 2 2 2 2 2 2 : & = & O O O + & & = & - e e - - 4 w y y r r 4 < = - 4 w w k a 2 2 2 2 2 2 2 2 2 2 2 2 2 2 2 2 2 2 2 2 2 2 S D C ",
"C D e.2 2 2 2 2 2 2 2 2 2 2 2 2 2 2 2 2 2 2 2 2 2 2 2 2 2 2 2 2 > * # # O     O # & & & = - - - = = = 4 r y a k y w 4 < 4 w z x x l 2 2 2 2 2 2 2 2 2 2 2 2 2 2 2 2 2 2 2 2 2 e.D C ",
"C D e.2 2 2 2 2 2 2 2 2 2 2 2 2 2 2 2 2 2 2 2 2 2 2 2 2 2 2 2 : * #           # & & & & = - - = & = = = 4 y k l a y w - 4 w F L L x i 6 2 2 2 2 2 2 2 2 2 2 2 2 2 2 2 2 2 2 2 e.D C ",
"C D e.2 2 2 2 2 2 2 2 2 2 2 2 2 2 2 2 2 2 2 2 2 2 2 2 2 2 2 , & # +         + & & & & = - - = = = & = & < y k F x k y - = w L I I L L i 2 2 2 2 2 2 2 2 2 2 2 2 2 2 2 2 2 2 2 e.D C ",
"C D e.2 2 2 2 2 2 2 2 2 2 2 2 2 2 2 2 2 2 2 2 2 2 2 2 2 2 = & # O         + & & & & & = = & = & = - = = 4 r x I L x y - - - 4 x L W I L M 2 2 2 2 2 2 2 2 2 2 2 2 2 2 2 2 2 2 e.D C ",
"C D e.2 2 2 2 2 2 2 2 2 2 2 2 2 2 2 2 2 2 2 2 2 2 2 2 2 : * #           + # & & & & & & & = & = = - - - w a z F F x a 4 4 - - k L I I I L l 6 2 2 2 2 2 2 2 2 2 2 2 2 2 2 2 2 e.D C ",
"C D S 2 2 2 2 2 2 2 2 2 2 2 2 2 2 2 2 2 2 2 2 2 2 2 2 2 = # O         + # & & & & = & & & = = = - w w y a y a k k k y e 4 - 4 y x L W W W Y i 2 2 2 2 2 2 2 2 2 2 2 2 2 2 2 2 e.D C ",
"C D e.2 2 2 2 2 2 2 2 2 2 2 2 2 2 2 2 2 2 2 2 2 2 2 2 2 - & O     O + # & & & & & & # O   # = w w r y a w - & & * = - - - - < t k x Y ^ / I i 2 2 2 2 2 2 2 2 2 2 2 2 2 2 2 2 e.D C ",
"C D e.2 2 2 2 2 2 2 2 2 2 2 2 2 2 2 2 2 2 2 2 2 2 2 2 2 = # O     O & & & & & & & # O     = 4 y y w - - - & # # # & 5 t w = = w t k L Y / / I l 2 2 2 2 2 2 2 2 2 2 2 2 2 2 2 e.D C ",
"C D e.2 2 2 2 2 2 2 2 2 2 2 2 2 2 2 2 2 2 2 2 2 2 2 , : & O O     O & & & & & & & O   O # - w y r - = = = = 1 > 1 7 z H z 7 7 t t a x I ~ / W M 2 2 2 2 2 2 2 2 2 2 2 2 2 2 2 S D C ",
"C D e.2 2 2 2 2 2 2 2 2 2 2 2 2 2 2 2 2 2 2 2 2 2 2 , & O       O + & & & & & & O   O # = t t r 4 = # O = u n N n T } +.Q n N c a w y x Y / Y x 2 2 2 2 2 2 2 2 2 2 2 2 2 2 2 e.D C ",
"C D e.2 2 2 2 2 2 2 2 2 2 2 2 2 2 2 2 2 2 2 2 2 2 2 < & O     O + & & & & & # O     = < w r w - & = 4 e L 2.D.G.L.G.G.G.L.K.K.a.O.G 4 y l Y L F x 6 2 2 2 2 2 2 2 2 2 2 2 2 2 S D C ",
"C D S , 2 , , 2 2 2 2 2 2 2 2 2 2 2 2 2 2 2 2 2 2 : * #       O # & & # # + O     & < 4 t 4 - = = j H Q ;.k.I././././././././.D.f.O.b a 7 F L I L l i , 2 2 , , 2 2 , 2 , , , e.D C ",
"C D e.; , , ; 2 2 2 2 2 2 2 2 2 2 2 2 2 2 2 2 2 2 * & O     O O # & & O O       # 4 w t t < & & y ! #.i.b.L.^.`.'.].'.].].'.`./.P.l./ c < k L Y ^ W M , 2 2 , ; , , ; , , ; ; e.D C ",
"C D e.2 ; : 2 2 2 2 2 2 2 2 2 2 2 2 2 2 2 2 2 2 2 = # +   O # & + O O O     O & - e e - = & 5 j O.y.z.c.P.^.`.].].].].].].].].'.).^.k.3.~ t H Y ^ W m , 2 ; ; 2 ; , 2 % 2 2 2 e.D C ",
"C D S , , : : 2 2 2 2 2 2 2 2 2 2 2 2 2 2 2 2 2 = * # O   O # # O O   O   O & - 4 - - = & - j E y.z.c.v.P.(.'.].].].].].].].].].'./.F.j.+.4 k L ^ W M 2 , , 2 , , , , , , ; , S D C ",
"C D S ; , , , , 2 2 , 2 2 , 2 , 2 2 2 2 2 2 2 , & # +     O O O O       O & - - - - & & = y K #.z.x.c.c.P.(.].].].].].].].].].].'./.P.v.3.4 a L ^ / M 8 ; 2 , ; , , : 2 , ; % S D C ",
"C D S 2 : : 2 ; , 2 ; , , ; , , % 2 ; , 2 2 2 , & O         O           + & e 5 - & O & - K  .y.z.c.c.c.!.(.].].].].].].].].].].'./.P.k.3.= t x ^ / ^ W 2 ; , 2 ; , 2 % % ; ; S D C ",
"C D S 2 2 , ; 2 : ; , ; , , ; , 2 ; , , ; 2 , ; & + O   O             O # & 4 = & O = e G  .*.3.u.u.d.x.P.(.'.'.].].].].].].].].'./.P.x.=.= r l ^ / / I ; 2 , % , , ; : ; , % D D C ",
"C D S , , , , , , , , , , , , , , 2 , , , , , , & +     O O   O       O # & = & & & t J [ ` ` K U U ` O.x.I.(.'.].].].].].].].].'.(.P.c.3.= 4 a I / / Y ; , , , , , ; ; ; ; ; S D C ",
"C D S ; ; , , ; , , ; , , ; 2 , ; 2 , ; 2 ; , , & O     O O O O O     + & & & + # - J [ #.K u - - = 7 G =.l.U.).'.].].].].].].].'./.P.k.1.= = w L / W Y 2 , , 2 ; ; ; ; ; ; ; S D C ",
"C D S ; , , ; 2 , ; 2 , , , ; , 2 % 2 , % 2 : $ O       # & = & O     O + + O + & G [  .&.K G b j = & & 4 s T D./._.].].].].].].'.(.P.x.=.= = 4 L / W Y ; , , ; ; ; ; ; ; ; ; S D C ",
"C D S ; ; , 2 ; , , , , , : , , : , : , : - = #   O # = y j z 4 &     O O O # = t K &.&.*. .O...o.) P c e e y ' h.U._.].].].].'.(.^.!.k.=.= = 4 n / / Q : : ; ; ; ; ; ; ; ; : S D C ",
"C D S ; ; ; 2 , , , ; , , : , , : , : : , = & #   O & t H R ! z = O   O O O = e G #.*.t.t.t.=.1.q.7.-.Q j e 5 b ,.J.)._.'._.R.T.I.K.v.a.+.= & < x / / / ; ; ; ; ; ; ; ; ; ; ; S D C ",
"C D S ; ; ; ; 3 , ; 2 ; ; 2 ; , 2 ; , , ; - & #   + - J [ | O.J - & O   O & r J  .t.i.x.c.z.%.@.q.H.8.o.J u e e ] q./._./.R.A.9.5.>.-.' U & & 1 x ^ / / ; ; ; ; ; : ; ; ; ; ; S D C ",
"C D S ; ; ; ; ; ; ; , ; ; ; ; ; ; ; ; : ; = & # O = t K J J G J z e O & - j E &.i.z.n.n.n.O.v - > > > 5 j J ! ! 5.b.~.~.L.k.n a t 7 7 - * O # - a Y / ^ ; ; ; ; ; ; ; ; ; ; ; S D C ",
"C D S ; ; ; ; , ; ; ; ; ; ; ; ; ; ; ; : = - & # O = t K J G J K G j & - z K &.y.z.c.!.m.h.E b t # V _ j G G G K 5.l.!.P.b.4.y y g n v 7 = O # - a Y / } s , ; ; ; ; ; ; ; ; ; S D C ",
"C D S ; ; ; ; ; ; ; ; ; ; ; ; : ; ; ; : - = & # O - j | J K ! [ J j - G [ &.s.z.x.!.^.J.>.v E U = Q.E.[ E j - z 1.b.~.!.j.+.t b ! 5.-.P 5 O & - a W } X.} p : ; ; ; : ; ; ; ; S D C ",
"C D S % ; ; , ; % , , % ; ; ; : ; ; ; > = = & # O - y K J J J E K ! K | #.3.z.z.n.P.~.!.K.m.k.a.`  .t.c.3.` J  .d.D.~.l.O.G & = - e v T E & & = a Y / X./ p ; ; ; ; ; ; ; ; ; S D C ",
"C {.e.; ; ; % ; ; ; ; ; ; ; ; ; ; ; ; ; - - & & O & t K K J J K !  .| O.*.y.z.z.c.!.~.!.I.I.G.n.u.u.d.n.k.=. .t.j.n.P.f.` t + & = 5 b H n # & = a W / X.W p ; ; ; ; ; : ; ; ; S D C ",
"C D S ; ; ; ; ; : ; ; ; ; ; ; ; ; ; ; : - - = #   # - G K K J K [ {  .*.t.s.z.z.c.!.!.~.^.^.!.P.v.v.n.n.b.i.t.s.x.v.F.f.T 4 & f h u G b u # # - a W } X.^ p ; ; ; ; : ; ; ; ; S D C ",
"C D e.; ; ; ; ; ; ; ; ; ; ; ; ; ; ; ; ; - = = &   O & t J K ! !  .{  .t.i.z.z.x.c.!.!.!.!.!.!.!.~.!.!.!.m.c.z.s.z.x.n.f.T w y W.[.t. .g # O & = a W } X.W p ; ; ; ; ; ; ; ; ; e.D C ",
"C D A ; ; ; ; ; ; ; ; ; : ; ; ; ; : > = = - & &   O O = t G ! =.#. . .t.s.z.z.c.c.!.!.!.!.~.!.!.!.!.!.!.n.z.y.i.i.x.n.f.' H $.a.d.i.+.v & O # - a Y / X.W p ; ; ; ; ; ; ; ; ; S D C ",
"C D A % , % , ; ; ; ; ; ; ; : ; ; ; = = = = = & O O O + - - c U K K  .y.s.z.z.c.n.!.!.~.^.^./.^./.~.!.!.s.y.#.=.y.z.n.f.' J j.a.i.d...j # O # = a W } } W i : ; ; ; ; ; ; ; ; S D C ",
"C D S ; % , % , ; ; ; ; : ; ; ; ; ; > = = - = #   O O O O # & = u J  .y.s.z.c.F.~.~.!.~./.'._.'.`./.P.n.t.| K  .t.z.m.f.' I b.b.c.z.{ t O O # < a W / } W i ; ; ; : ; ; ; ; ; S D C ",
"C {.S ; , % , % ; ; ; ; ; ; ; ; ; ; = = 5 < = &   O O O O O O O - G $.s.z.z.c.F.~.~.(.(.'.].].'./.!.b.<.! O.y.k.P./.'.H.] I L.I.!.n.{ y O + # = a W } } W 8 ; ; ; ; ; ; ; ; ; e.D C ",
"C D S ; % ; % % ; ; ; ; ; ; ; ; ; ; = - - 4 - &     O O O O O + - b $.i.z.z.n.!.~.~./.(.(.(.I.K.G.P.D.2.} &.y.4.k.J.K.7.) L K.~.!.m.' u O O & = a W } } W p ; ; ; ; ; ; ; ; ; e.D C ",
"C D D ; ; % ; % % ; % ; ; ; ; ; ; ; = - 4 w - &   O O O O O O # 5 b =.s.z.z.v.!.!.~.^././.P.b.j.p.G.G.g.3.3.3.+.1.4.a.X.I L T.^.!.n.} u O O & = a W / / ^ 8 ; ; ; ; ; ; ; ; ; D D C ",
"C D A % ; ; % ; % % ; % % , % % ; ; = - 4 4 - & O O O O O O O & 4 z *.i.z.z.v.P.~.~.~.!.G.p.=.{ t.b.G.^.D.j.=.E K K K K I Q (.(.~.n.} u O O & = k W Q / ^ p ; % ; ; % ; ; ; ; S D C ",
"C D S % % ; ; % ; ; % ; ; % ; % ; < : - 4 4 = & O # & O O O # = w G #.i.z.x.n.F.~.~.~.G.D.$.{ { y.p.b.G./.^.P.u.O.! K ` 1.l.(.(.P.d.E t O O # - k W Q W X.p ; ; % % ; ; ; ; ; S D C ",
"C D S % % % ; % % ; % ; ; % ; % * = - - 4 - = & O & & + O O # = r G #.i.z.z.n.P.~.~./.^.G.u.=.&.t.=.a.b./././.b.6.2.O.+.j.I././.K.y.H < O O & - x W Q W / p % ; ; % ; ; ; ; ; S D C ",
"C D S ; ; ; % % ; % ; % % ; % ; : - w 4 w - & & O & & & O O # = r z #.i.z.z.v.P.~.~.`.`./.F.n.x.#. .*.z.~./././.T.K.D.j.b.~.~.!.b.$.y = O & - e n Q Q W X.p ; % ; ; % ; ; ; ; S D C ",
"C D A % % % % % ; ; % ; ; % ; ; : - w w w & & O O = - & + # & = e z #.i.s.z.v.F.~.^.`.`.'.^././.b.k.z.i.t.y.y.y.u.y.y.p.b.~.P.v.=.H & # O & 5 a L Q Q I : * % ; % % : ; ; ; ; S D C ",
"C D A % % % % % % % % ; % ; % ; = - w w - & O O # - - = # O # = e G #.t.i.z.v.F.!.~.(.`.(.^.`.`.~.P.m.l.s.s.a.s.u.y.u.j.G.P.G.a.} y # O # & 4 k Y / Q Y ; % ; % % ; ; % ; ; % S D C ",
"C D S % % % % % % % % % % ; % , - w w e - & O O & - - = O # & = w G  .*.t.i.z.n.P.~././.(./.`.'.)./.^.K.l.D.l.x.s.j.j.b.G.P.F.<.J 4 + + & & w x W / / L % % ; % ; % % % % ; % A D C ",
"C D S % % % % % % % % % % % > 1 - w w - = O O # - - - - # O # - e G #.&.t.t.p.x.F.~.~.~.~./.(.'.].].]._.)././.^.G.F.P.P.P.P.f.W k & O & & = 7 x ~ / / L % % % % % % % % % % ; A D C ",
"C D A % % % % % % % % % % % = 1 w e w - = # # # - - - = # O & - y J t.*.*.&.t.p.v.!.!.!.~.~.^.(.].].'.(.^.^.~.~.P.!.!.!.G.g.W t = O O # = = 7 n ^ } / Y % % % % % % % % % ; % S D C ",
"C D A % % % % % % % % % % % = 1 - w - = & O O & - 5 - - O & = y b ! i.y.t.*.*.i.z.F.!.!.~.~.~.^.'.].'.(.^.~.~.~.~.!.G.G.f.;.a = O   O & = - y n / ;./ W % % % % % % % % ; % % S D C ",
"C D A % % % % % % % % % $ ; = < - w = & O O # = e e 4 - # & - J [ #.d.z.i.y.*.*.t.c.F.!.~.~.~./.'.].'.'./.^.~.!.~.!.!.f.X.x * O O   O & = 5 y H / :.X./ % % % % % % % % % % ; S D C ",
"C D A % % % % % % % % % * * = 4 w - & O O & = - w w 4 - & & - K #.s.F.n.c.s.y.*.t.y.z.n.!.~.^./.`.].].].`.(./.~.!.G.6.L 7 & O O O   O & - y b I } :.X.) % % % % % % % % % ; % S D C ",
"C D A % % % % % % % % % * = < 4 w - & O O & - - w w w - & - y [ t.z.P.F.n.c.i.y.t.t.i.z.v.P.!.^.(.'.].].'._.(.!.D.6.' 7 = O O O O O # * < k M Y } :.-.^ % % % % % % % % % ; % S D C ",
"C D A % % % % % % % % % ; = 4 w e - #   O & - w w w - - = e z #.y.c.!.!.F.v.x.i.t.t.t.y.z.v.P.!././.`.'._.(.^.P.5.' v = # O O O O O & = 4 k M Y } >.X.^ % % % % % % % % % % % S D C ",
"C D A % % % % % % % % % : = 4 4 e - & O O & - - w w - = 4 x [ t.j.n.~.~.!.P.v.c.z.t.t.t.t.i.c.F.F.!.~.^.^.T.K.f.Y y = O O O O O # & = < 4 x L Y / :.} W % % % % % % % % % % % S D C ",
"C D A % % % % % % % % % * = 4 4 - & O O O - - w - - - - z E &.x.F.!.~.~.!.!.F.n.x.z.t.t.t.t.y.i.x.j.d.j.d.6.;.L 7 * O O # & O O # & = 4 r M Y / / ^ M 6 % % % % % % % % % % % A D C ",
"C D A % % % % % % % % % ; = - - = & O + # - 5 4 - - - e U O.y.b.!.!.~.~.~.~.!.F.n.c.i.i.t.t.t.&.*.*.&.{ K K J - & + O & & & O O & & - r j F Q } } W s % % % % % % % % % % % $ A D C ",
"C D A % % % % % % % % % * - 4 = & + O # - e 5 - - - e b #.y.s.b.!.~.~.~.~.~.~.~.!.c.c.z.i.t.t.&.! ! G e = & & # O O + & & & O & & - - r k F } } X.^ s % % % % % % % % % % % % A D C ",
"C D A % % % % % % % % = = = < = & O O # = - - - = t G O.y.x.n.P.~.~.~.~.~.~.~.~.~.F.n.n.n.i.i.&.{ K G -     O   O & & = = & + & & - - y k L } X.X.W s % % % % % % % % % % % % A D C ",
"C D A % % % % % % % % > > = = = + O O + & = = = e H ` y.s.v.F.!.~.~.~./.~.~.~.~.~.~.~.!.n.z.i.t.#.J y =         # & = = = = & = - - t j k I / @./ W s % % % % % % % % % % % % A D C ",
"C D A % % % % % % % % = = = * # + O O O # & = - k ~ =.z.n.F.P.!.~.~.~.~.~.^.~.~.~.~.~.~.~.n.z.i.#.J t &         & & = = = = 4 - - 4 t y k I ' X./ W s % % % % % % % % % % % % A D C ",
"C D Z % % % % % % % % * & & + + O       O = e b ' $.y.j.P.P.~.~.~.^.~.~.~.~.~.~.~.~.~.~.~.!.c.i.#.z 5 & O     O & & = = 4 4 a 4 4 w a a a W X.X./ x 6 % % % % % % % % % % % % A D C ",
"C D A % % % % % % % % # # # + + # $ X @ - b ` @.%.` ' a.F.!.~.~.~.~.~.^.~.~.~.~.~.~.~.~.~.n.c.i.#.G e &     O + & = = 4 w y a r 4 y k a a Y ' X./ L p % % % % % % % % % % % % A D C ",
"C D A % % % % % % % % @ + + + @ @ @ X * J ..3.d.j.X.~ O.k.P.!.~.~.~.~.~.~.~.~.~.~.~.~.~.~.!.c.i.&.G e &   O O & & = = w a a k a y k k a a Q / / Q L s 1 % % % % % % % % % % % A D C ",
"C D A % % % % % % % % % % % % o . . . 3 z.m.n.!.Y.S.-.y X.f.G.~.~.~.~.~.~.~.~.^.~.~.~.~.~.P.v.i.#.G e &   O + - - - e j k k k k x x l a a I ~ Q Q L F x $ $ % % % % % % % % % A D C ",
"C D A % % % % % % % % o X X . . . . . 3 z.c.n.!.^.G.D.4.T ' 6.^.~.~.^.~.~.~.~.~.~.~.~.~.~.F.x.y. .G e &   O + 4 - - - j z F x F x L k a r F W W / W I x ; $ % % % % % % % % % A D C ",
"C D A % % % % % % % o X . . . . . . X 0 x.x.c.n.P.F.F.k.~ ) X.g.l.G.P.^.^.~.~.~.^.~.~.~.~.F.x.y.&.G e &   O & 4 - - w k x F F F L F k a a x W Q Q W I L 6 : % % % % % % % % @ A D C ",
"C D A % % % % % % @ . X . . . . . .   u x.z.c.n.F.F.F.v.@./ Q / :.f.P.^.~.~.~.~.~.~.~.~.~.F.x.y.#.G e &   O + e w w - k F L F F L F a y r k I Q Q W W L x , % % % % % % % % @ A D C ",
"C D A % % % % . . . . . . . . . . . . 0 m.n.n.c.n.c.c.z.x.3.~ b W / >.9.l.D.P.P.!.P.F.P.P.n.z.y.#.J t = O O + - w - w y k F I I L F a y r k L ~ } / W Y k 2 % % % % % % % $ @ Z D C ",
"C D A % o o o . . . . . . . . . . . X f (.K.n.!.n.n.n.c.c.d.a.1.+.+.P Q X.3.c.v.n.v.v.v.v.z.i.=.{ K z 5 & # O - - r r w a z F L L x a y r a F W / / W W x 2 % % % % % % % % @ A D C ",
"C D A @ o . . . . . . . . . . . . . . 9 m.K.!.!.!.!.n.c.n.n.b.v.j.3.P Q / +.3.p.p.y.z.s.y.} +.{ K J j e & + O & w r r w r a F F L F a r w a F I W / / W x 6 $ % % % % % % $ @ A D C ",
"C D Z . . . . . . . . . . . . . . . . . . c.!.!.!.!.!.!.!.!.P.P.P.G.D.b.2.W n } y.! *.&.^ y z x e - - - & & O & - y y r w w k F F F a w w y x L / / / W I 6 % % % % % % % $ @ A D C ",
"C D Z . . . . . . . . . . . . . . . . . . J.P.P.P.!.!.!.!.~.!.!.!.!.!.!.D.6.<.g.b.4.k.g.4.[ } { ` ` K J e * O & - w a i r y a k x x k r 4 w a F Q / / / Y L l % % % $ % % % @ A D C ",
"C D Z . . . . . . . . . . . . . . . . . . B 7.P.!.!.!.!.~.!.~.~.!.~.~.~.G.S.l.D.G.S.F.D.S.y.p.p.3.1.$. .b - O & - w a a a a k k k x k a w w a x Y ^ / / W W L i ; % % % % $ @ Z D C ",
"C D Z . . . . . . . . . . . . . . . . . . . B K.P.!.!.!.!.~.!.~.~.!.!.~.!.^.~.~.~.~.~.!.!.F.F.D.m.c.s.y.K 5 O & - w r a k k x z k k k a r w r k L W / / Q W W [ : % % % % $ @ A D C ",
"C D Z . . . . . . . . . . . . . . . . . . . . % !.!.P.!.!.!.~.!.!.~.!.!.~.P.~.~.!.~.!.!.!.!.!.!.~.n.b.z.#.v - & & = 4 a k k L x F k k k k y a k x Y ~ / / / ^ ^ , % % % % $ @ A D C ",
"C D Z . . . . . . . . . . . . . . . . . . . . o m 0.P.P.~.~.!.!.~.!.~.~.~.!.~.~.~.~.!.~.!.~.~.!.!.!.n.c.y.O.J & & = - a a k L F F x k k k a a a x Y ^ / } / / ^ v 8 % % % % @ A D C ",
"C D Z . . . . . . . . . . . . . . . . . . . . . X ) 7.7.G.!.!.!.!.~.!.!.!.~.~.~.~.!.~.~.~.!.!.!.!.!.F.n.s.y...& & = - r a k x F F F k k k k a a k L W / / / / / Q s $ % % @ @ Z D C ",
"C D Z . . . . . . . . . . . . . . . . . . . . . . . X . g.!.!.!.!.!.!.~.~.!.~.~.!.~.~.!.~.!.!.!.!.!.!.n.z.i. .& # & = - w a k x F L x k a k a a k x L Q / ] ' ~ W s @ @ @ @ @ A D C ",
"C D {.Z Z Z Z Z Z Z Z Z Z Z Z Z Z Z Z Z Z Z Z Z Z Z Z Z V.Z.Z.Z.Z.Z.Z.Z.Z.Z.Z.}.Z.Z.Z.Z.Z.Z.Z.Z.Z.Z.Z.C.C.C.r.w.Z w.w.w.r.e.e.e.r.r.r.e.w.r.w.r.e.e.M.M.M.M.M.M.M.e.A A A Z A {.D C ",
"C D D D D D D D D D D D D D D D D D D D D D D D D D D D D D D D D D D D D D D D D D D D D D D D r.D D D D D D D D D D D D D D D e.M.D D D D D D D D D D D D D D D D D D D D D D Z C ",
"C C C C C C C C C C C C C C C C C C C C C C C C C C C C C C C C C C C C C C C C C C C C C C C C C C C C C C C C C C C C C C C C C C C C C C C C C C C C C C C C C C C C C C C C C C "
};
