/* XPM */
static char *_2f8f1a4106e42a382b6d9439efbbbb0il9GASDHheX1WAad[] = {
/* columns rows colors chars-per-pixel */
"64 64 149 2 ",
"   c black",
".  c #170D11",
"X  c #1B0E12",
"o  c #1D0F11",
"O  c #0E1917",
"+  c #0B1719",
"@  c #0F1618",
"#  c #0C181A",
"$  c #131316",
"%  c #1A1313",
"&  c #1E1011",
"*  c #1D1414",
"=  c #11181A",
"-  c #101C18",
";  c #22110F",
":  c #2B140F",
">  c #2D140F",
",  c #361C00",
"<  c #381D0F",
"1  c #221110",
"2  c #261310",
"3  c #2F1710",
"4  c #351810",
"5  c #341E16",
"6  c #391A10",
"7  c #3F1F12",
"8  c #132016",
"9  c #152215",
"0  c #182614",
"q  c #1A2913",
"w  c #1C2911",
"e  c #1E2D12",
"r  c #3E2101",
"t  c #222A12",
"y  c #3D2111",
"u  c #411D0E",
"i  c #452502",
"p  c #522B00",
"a  c #412610",
"s  c #482213",
"d  c #4A2615",
"f  c #43281A",
"g  c #572913",
"h  c #5D2A15",
"j  c #5B2E16",
"k  c #612F17",
"l  c #663012",
"z  c #6F3616",
"x  c #67311A",
"c  c #703111",
"v  c #733515",
"b  c #7F3D15",
"n  c #733A1C",
"m  c #7B3F1D",
"M  c #6F6F6F",
"N  c #833F15",
"B  c #8A3E1A",
"V  c #864217",
"C  c #924717",
"Z  c #984614",
"A  c #914E1A",
"S  c #9F481A",
"D  c #B65D0F",
"F  c #A5491C",
"G  c #A64C1E",
"H  c #A85314",
"J  c #AF511E",
"K  c #BD610A",
"L  c #944125",
"P  c #934424",
"I  c #9C4E22",
"U  c #945220",
"Y  c #9F5B25",
"T  c #97582D",
"R  c #A64720",
"E  c #AB4A24",
"W  c #AD4C27",
"Q  c #AE4B28",
"!  c #B34F25",
"~  c #B24D28",
"^  c #A55324",
"/  c #A5592B",
"(  c #B85924",
")  c #B45329",
"_  c #BB532A",
"`  c #BC5928",
"'  c #A7602D",
"]  c #AF662B",
"[  c #AA6334",
"{  c #BC6A32",
"}  c #C66708",
"|  c #CD671C",
" . c #C25F21",
".. c #C05629",
"X. c #C35A2A",
"o. c #C35E2D",
"O. c #C7612F",
"+. c #C9602A",
"@. c #D86B23",
"#. c #D1642F",
"$. c #CA6030",
"%. c #D16732",
"&. c #D66730",
"*. c #D16832",
"=. c #D76832",
"-. c #D46B35",
";. c #DC6B30",
":. c #D96D35",
">. c #DD6C34",
",. c #CE7136",
"<. c #C27638",
"1. c #D27C3B",
"2. c #E26E33",
"3. c #E37035",
"4. c #E17339",
"5. c #E57338",
"6. c #E1763B",
"7. c #E27F3E",
"8. c #E97B3C",
"9. c #C27F43",
"0. c #EA823F",
"q. c #D08946",
"w. c #D98A45",
"e. c #D88F49",
"r. c #ED8642",
"t. c #E68943",
"y. c #F18C46",
"u. c #E3944B",
"i. c #ED9A4F",
"p. c #F69349",
"a. c #F3944A",
"s. c #F7984B",
"d. c #F9984B",
"f. c #FA9D4F",
"g. c #E78E51",
"h. c #F2A153",
"j. c #FAA454",
"k. c #FDA655",
"l. c #FFA957",
"z. c #FFAA58",
"x. c #FFAC59",
"c. c #8B8B8B",
"v. c #ECBD87",
"b. c #EEC08A",
"n. c #EECB94",
"m. c #F0CA94",
"M. c #F2CE96",
"N. c #F2CD98",
"B. c white",
/* pixels */
"M M M M M M M M M M M M M M M M M M M M M M M M M M M M M M M M M M M M M M M M M M M M M M M M M M M M M M M M M M M M M M M M ",
"M c.c.c.c.c.c.c.c.c.c.c.c.c.c.c.c.c.c.c.c.c.c.c.c.c.c.c.c.c.c.c.c.c.c.c.c.c.c.c.c.c.c.c.c.c.c.c.c.c.c.c.c.c.c.c.c.c.c.c.c.c.c.M ",
"M c.p p p p p p p p p p p p p p p p p p p p p p p p > u u > p p p p p p p p p p p p p p p p p p p p p p p p p p p p p p p p c.M ",
"M c.p p p p p p p p p p p p p p p p p p p p p p p & 2 < < 3 & p p p p p p p p p p p p p p p p p p p p p p p p p p p p p p p c.M ",
"M c.p p p p p p p p p p p p p p p p p p p 1 X p 1 2 2 2 : y < 1 y < & p p p p X y f y p p p p p p p p p p p p p p p p p p p c.M ",
"M c.p p p p p p p p p p p p p p p p p p X X o & 2 2 3 < 2 : 2 ; 2 2 & p X X & 1 : : 3 7 7 p p p p p p p p p p p p p p p p p c.M ",
"M c.p p p p p p p p p p p p p p p p p & X X ; 2 2 X ; 2 X X X   X X o X X X ; X ; 2 ; 3 3 X p p p p p p p p p p p p p p p p c.M ",
"M c.p p p p p p p p p p p p p p p p p & X ; 2 2 ; . X X X X     & . X X X X & X X ; ; : : 2 & p p p p p p p p p p p p p p p c.M ",
"M c.p p p p p p p p p p p p p p & p p p X . X ; . X $           X X X &       o . . ; < y : & p p p p p p p p p p p p p p p c.M ",
"M c.p p p p p p p p p p p p p p X X X & 3 . . X o       X X & &     &       & 1 . . X X < y y & p p p p p p p p p p p p p p c.M ",
"M c.p p p p p p p p p p p p p X X ; ; X ; . . X       X o                       X X     & 2 2 ; & p p p p p p p p p p p p p c.M ",
"M c.p p p p p p p p p p p p $ X X X X X . . . X       X X                       > *       X . X ; & p p p p p p p p p p p p c.M ",
"M c.p p p p p p p p p p p p * X p p     X X X %   X X X       f y d                 y       . . X 3 y p p p p p p p p p p p c.M ",
"M c.p p p p p p p p p p p p p p & p       X X     & X &   b I #.&.( N N y k I 7     1 X     X . . X : y t p p p p p p p p p c.M ",
"M c.p p p p p p p p p p p p p p X X             $ o X X     ) 2.r.0.1.1.<.<.1./       & X     o . . X y a p p p p p p p p p c.M ",
"M c.p p p p p p p p p p p % * X X X             X X & % @     y.f.f.f.j.j.f.p.3.%.    & X     X ; X . 3 * p p p p p p p p p c.M ",
"M c.p i p p p p p p p p p X X X &               1 & *   & d w.k.l.l.l.l.l.k.d.8.:.)   X X     & o ; X & p i p i p i p i p i c.M ",
"M c.i p i p i p p p p @ o o X X                 &         t.s.l.l.l.z.z.l.l.k.a.    X o         X X X p i p i p i p i p i p c.M ",
"M c.p i p i p i p i p X X   & o       %               4.4.s.k.l.l.z.z.z.z.l.l.j.    X   * & $   X X p i p i p i p i p i p i c.M ",
"M c.i p i p i p i p i X X     X                       0.r.j.z.l.z.z.z.z.z.l.l.j.    X     X &     * i p i p i p i p i p i p c.M ",
"M c.p i p i p i p i p % X                             g.i.k.x.z.z.z.z.z.z.l.l.k.p.a.      % X       X y a i p i p i p i p i c.M ",
"M c.i p i p i p i p i p i p i                   ! ! E ^ ^ 9.q.q.j.z.z.z.z.j.j.j.j.t.=.      X &     i & * p i p i p i p i p c.M ",
"M c.i i p i p i p i p i p i p             ) )             & 2 f u.x.z.z.z.j.                        p i p i p i p i p i i i c.M ",
"M c.i i i i i p i p i p i p i p *.%.      ~ ..$.%.v u > X o s l ] q.z.j.<./ u u u u v %.          p i p i p i i i i i i i i c.M ",
"M c.i i i i i i i i p i p i p i >.+.W     X.#.2.;.B d 4 4 k m V V ] z.h.A k 4 4 4 h C #.        i i i i i i i i i i i i i i c.M ",
"M c.i i i i i i i i i i i i i p >.S l c   3.2.5.3.B.      :. .C C { z.h.U b B.      3.5.        i i i i i i i i i i i i i i c.M ",
"M c.i i i i i i i i i i i i i i >.( V c   3.0.d.s.B.B.    a.r.&.&.7.z.j.( E B.B.    8.y.  % 4 i i i i i i i i i i i i i i i c.M ",
"M c.i i i i i i i i i i i i i i >.( V c   3.r.k.j.j.j.j.j.j.d.0.2.0.z.j.O.$.j.j.j.a.p.f.  > 5 i i i i i i i i i i i i i i i c.M ",
"M c.i i i i i i i i i i i i i i =.X.G c   3.r.l.z.z.z.z.z.z.j.p.5.0.z.j.O.-.k.z.z.x.z.l.    > i i i i i i i i i i i i i i i c.M ",
"M c.i i i i i i i i i i i i i i i ;.;.o.  3.r.l.z.z.z.z.z.z.j.p.5.r.z.j.O.-.l.z.z.z.z.l.  i i i i i i i i i i i i i i i i i c.M ",
"M c.i i i i i i i i i i i i i i i ;.+.N h 2.r.l.z.z.z.z.z.z.j.p.5.r.z.k.7.r.l.z.z.z.z.z.  i i i i i i i i i i i i i i i i i c.M ",
"M c.i i i i i i i i i i i i i i i *.` c x O.7.z.z.z.z.z.z.x.f.7.5.r.z.l.r.y.l.z.z.z.l.u.  i i i i i i i i i i i i i i i i i c.M ",
"M c.i i i i i i i i i i i i i i i i i i i V ] l.z.z.z.z.z.x.r...&.0.l.j.r.y.l.z.z.z.j.Y   i i i i i i i i i i i i i i i i i c.M ",
"M c.i i i i i i i i i i i i i i i i i i 7 V ] f.z.z.z.z.z.x.p.#.S ( 8.6.J { l.z.z.z.j.U 7 i i i i i i i i i i i i i i i i i c.M ",
"M c.i r i i i i i i i i i i i i i i i i : g m 1.z.z.x.x.k.1.' m s g n z g n <.k.x.l.i.n 2 i i i i i i i i i i i i i i i i i c.M ",
"M c.r i r i i i i i i i i i i i i i i i X 2 s ' k.z.k.i.u.A j : . . . . ; 6 V e.h.k.u.f o i i i i i i i i i i i i i i i i i c.M ",
"M c.i r i r i i i i i i i i i i i i i i i X X m p.k.e.z j 6 2 X X X X X X ; 3 g T f.6.f i i i i i i i i i i i i i i i i i i c.M ",
"M c.r i r i r i r i i i i i i i i i i i i X . y V ] Y z P P P P ' [ [ [ [ [ T l m Y k i i i i i i i i i i i i i i i i i i i c.M ",
"M c.i r i r i r i r i r i r i i i i i i i $ X & 6 z z n O.&.-.-.,.,.{ { y.p.7.z l j o i i i i i i i i i i i i i i i i r i r c.M ",
"M c.r i r i r i r i r i r i r i r i i i i i     o : : s ,.7.0.7.C l 3 f e.j.q.s 3 3 X i i i i i i i i i i i i i r i r i r i c.M ",
"M c.r r i r i r i r i r i r i r i r i r i W R     X ; 3 f j n A V l 6 z U A j : ; & i i i i i i i i i i i r i r i r i r i r c.M ",
"M c.r r r r r i r i r i r i r i r i r i r ~ Q         * X ; 6 g g s : g g s 2 X *     i i i i i i i r i r i r i r i r i r i c.M ",
"M c.r r r r r r r r r r i r i r i r @ +   ~ ~ E         X X ; : : o X : : 2 X X       # i r i r i r i r i r i r i r i r i r c.M ",
"M c.r r r r r r r r r r r r r i r + # +   ~ ~ ~ Q         & X X X X   X X X X       @ # @ i r i r i r i r i r i r i r r r r c.M ",
"M c.r r r r r r r r r r r r r r + @ # +   ~ ~ ~ ~ W R                             L   @ 8 e 0 r i r i r i r i r r r r r r r c.M ",
"M c.r r r r r r r r r r r r r r @ - - +   F ! ~ ~ ~ Q                           W W   # 8 q e i r i r i r r r r r r r r r r c.M ",
"M c.r r r r r r r r r r r r $ # # 0 e w   N F ! ~ ~ ~ ~ E                   ~ ~ ~ E   # # 9 e e r r r r r r r r r r r r r r c.M ",
"M c.r r r r r r r r r r r # @ # # 0 e e w   R G ! ! ~ ~ ~ Q Q Q Q Q Q Q Q Q ~ ~ !   B   $ 9 e e 9 O r r r r r r r r r r r r c.M ",
"M c., r r r r r r r r @ @   = # 8 q e w t * 4 l S ! ~ ~ ~ ~ ~ ~ ~ ! ~ ~ ~ ~ ~ ~ B b E   0 0   r w 9 @ 0 r r r r r r r r r r c.M ",
"M c., r r r r r r r # # #   + # q e w t   # @ y Z F ! ! ~ ! Q ! ! ! ! ! Q ~ ~ F S C )   0 q       9 # 0 w r r r r r r r r r c.M ",
"M c., , r r r r r @ # # #   + - e             $   Z S ! ~ ~ ~ Q ! ! ! ~ ~ ..+.C G ..)   0 q         # # 9 e e r r r r r r r c.M ",
"M c., , , , O # # # 9 8 #   w 9                 = P J H #.&.+.! ! ! ~ &.;.+.H +.&.#._   + *           = 8 e e w w 0 r r r r c.M ",
"M c., , , , + - 8 8 q 9 #   w e                 @ L ! (  . . ...J J ( 2.@.| ( 2.2.>.)   # %           # 8 e e e e e r r r r c.M ",
"M c., , , , & 9 e e e 8 @   0 w     @ # #             &.H H D | D D K @.| | 2.2.2.;.  # - O   # # +   # 8 e e q q e e r , , c.M ",
"M c., , , # # 9 e e e 8 # #     # # # # # # +   @ # y &.;.2. .A } } } } ;.2.2.2.2.;.  w e t   # # +   # 8 e e - 8 e e , , , c.M ",
"M c., , , # # - 9 e e 8 # #     # 8 8 # # # +   # # f &.2.2.&. .D K } | 2.2.2.2.;.    w e t   # # # @ @ 8 e e - 8 e e w t , c.M ",
"M c., , + # # # - e e 8 # # @   @ 0 9 # # # +   # # 5 =.=.3.2.;. .K | 2.2.6.g.g.      w e t   # # # # # 8 e e - 8 e e q 9 , c.M ",
"M c., # # # # @ @ q e 8 # # # # # 0 9 # # # $   # # #     4.6.6.6.6.6.6.6.g.m.m.      w e q   @ # # # # 8 e e - 8 e e 8 # , c.M ",
"M c., # # # # %   # q 8 # q - # 0 e 9 # # # # @ # 0 w     v.b.b.b.b.b.b.b.b.m.m.      w e 9 # # # # # # 8 e e - 8 e e 8 @ , c.M ",
"M c., # # # #     # 0 0 8 e 8 # q e 9 # # # # # # q w     n.N.M.M.M.M.M.M.M.M.M.      w e 9 # # # # # # 8 e e - 8 e e 8 @ , c.M ",
"M c., # # # #     # 0 e e e 8 # q e 9 # # # # # # q w                                 w e 9 # # # # # # 8 e e - 8 e e 8 @ , c.M ",
"M c., , , , , , , , , , , , , , , , , , , , , , , , , , , , , , , , , , , , , , , , , , , , , , , , , , , , , , , , , , , , c.M ",
"M c.c.c.c.c.c.c.c.c.c.c.c.c.c.c.c.c.c.c.c.c.c.c.c.c.c.c.c.c.c.c.c.c.c.c.c.c.c.c.c.c.c.c.c.c.c.c.c.c.c.c.c.c.c.c.c.c.c.c.c.c.c.M ",
"M M M M M M M M M M M M M M M M M M M M M M M M M M M M M M M M M M M M M M M M M M M M M M M M M M M M M M M M M M M M M M M M "
};
