/* XPM */
static char *_1a8192d8976421cc1dba2f731f298e2NggxvBT3jGfqg3Ty[] = {
/* columns rows colors chars-per-pixel */
"64 64 4 1 ",
"  c black",
". c #1A1A18",
"X c #242423",
"o c #2F3335",
/* pixels */
" XooooX  XooooX  XooooX  XooooX  XooooX  XooooX  XooooX  XooooX ",
" XooooX  XooooX  XooooX  XooooX  XooooX  XooooX  XooooX  XooooX ",
" XooooX  XooooX  XooooX  XooooX  XooooX  XooooX  XooooX  XooooX ",
" XooooX  XXooXX  XXooXX  XooooX  XooooX  XooooX  XooooX  XooooX ",
" XooooX  XXXXXX  XXXXXX  XooooX  XooooX  XooooX  XooooX  XooooX ",
" XooooX  XXXXXX  XXXXXX  .XXXX.  .XXXX.  XooooX  XooooX  XooooX ",
" XooooX  .XXXX.  .XXXX. XooooooXXooooooX XooooX  XooooX  XooooX ",
" XooooX  ......  ...... .XXXXXX..XXXXXX. XooooX  XooooX  XooooX ",
" XooooX  ......  ...... .XXXXXX..XXXXXX. XooooX  XooooX  XooooX ",
" XooooX  ......  ...... XooooooXXooooooX XooooX  XooooX  XooooX ",
" XooooX   ....    ....   .XXXX.  .XXXX.  XooooX  XooooX  XooooX ",
" XooooX  .    .  .    .  XooooX  XooooX  XooooX  XooooX  XooooX ",
" XooooX   ....    ....   XooooX  XooooX  XooooX  XooooX  XooooX ",
" .XXXX.  .    .  .    .  XooooX  XooooX  XooooX  XooooX  .XXXX. ",
"XooooooX  ....    ....   XooooX  XooooX  XooooX  XooooX XooooooX",
".XXXXXX.                 XooooX  XooooX  XooooX  XooooX .XXXXXX.",
".XXXXXX.                .XooooX  XooooX  XooooX  XooooX .XXXXXX.",
"XooooooX    .XXXXXXXXXXXXoooooX  XooooX  XooooX  XooooX XooooooX",
" .XXXX.    XooooooooooooooooooX  XooooX  XooooX  XooooX  .XXXX. ",
" XooooX   Xooooooooooooooooooo.  XooooX  XooooX  XXooXX  XooooX ",
" XooooX  .oooooooooooooooooooX   XooooX  XooooX  XXXXXX  XooooX ",
" XooooX  XooooooooooooooooooX    XooooX  .XXXX.  XXXXXX  XooooX ",
" XooooX  XoooooXXXXXXXXXXXX.     XooooX XooooooX .XXXX.  XooooX ",
" XooooX  XooooX.                 XooooX .XXXXXX. ......  XooooX ",
" XooooX  XooooX                  XooooX .XXXXXX. ......  XooooX ",
" XooooX  XooooX   ....    ....   XooooX XooooooX ......  XooooX ",
" XooooX  XooooX  .    .  .    .  XooooX  .XXXX.   ....   XooooX ",
" XooooX  XooooX   ....    ....   XooooX  XooooX  .    .  XXooXX ",
" XooooX  XooooX  .    .  .    .  XooooX  XooooX   ....   XXXXXX ",
" XooooX  XooooX   ....    ....   XooooX  XooooX  .    .  XXXXXX ",
" XooooX  XooooX  ......  ......  XooooX  XooooX   ....   .XXXX. ",
" XooooX  XooooX  ......  ......  XooooX  XooooX          ...... ",
" XooooX  XooooX  ......  ......  XooooX  XooooX.         ...... ",
" XooooX  XooooX  .XXXX.  .XXXX.  XooooX  XoooooXXXX.     ...... ",
" XooooX  XooooX  XXXXXX  XXXXXX  XooooX  XooooooooooX     ....  ",
" XooooX  XooooX  XXXXXX  XXXXXX  XooooX  .oooooooooooX   .    . ",
" XooooX  XooooX  XXooXX  XXooXX  XooooX   Xooooooooooo.   ....  ",
" XooooX  XooooX  XooooX  XooooX  XooooX    XooooooooooX  .    . ",
" XooooX  XooooX  XooooX  XooooX  XooooX     .XXXXoooooX   ....  ",
" XooooX  XooooX  XooooX  XooooX  XooooX         .XooooX         ",
".XooooX  XooooX  XooooX  XooooX  XooooX          XooooX         ",
"XoooooX  XooooX  XooooX  XooooX  XooooX   ....   XooooX     .XXX",
"ooooooX  XooooX  XooooX  XooooX  XooooX  .    .  XooooX    Xoooo",
"oooooo.  XooooX  XooooX  XooooX  XooooX   ....   XooooX   Xooooo",
"oooooX   XooooX  XooooX  XooooX  XooooX  .    .  XooooX  .oooooo",
"ooooX    XooooX  .XXXX.  .XXXX.  XooooX   ....   .XXXX.  Xoooooo",
"XXX.     XooooX XooooooXXooooooX XooooX  ...... XooooooX XoooooX",
"         XooooX .XXXXXX..XXXXXX. XooooX  ...... .XXXXXX. XooooX.",
"         XooooX .XXXXXX..XXXXXX. XooooX  ...... .XXXXXX. XooooX ",
"  ....   XooooX XooooooXXooooooX XooooX  .XXXX. XooooooX XooooX ",
" .    .  XooooX  .XXXX.  .XXXX.  XooooX  XXXXXX  .XXXX.  XooooX ",
"  ....   XooooX  XooooX  XooooX  XooooX  XXXXXX  XooooX  XooooX ",
" .    .  XooooX  XooooX  XooooX  XooooX  XXooXX  XooooX  XooooX ",
"  ....   XooooX  XooooX  XooooX  XooooX  XooooX  XooooX  XooooX ",
" ......  XooooX  XooooX  XooooX  XooooX  XooooX  XooooX  XooooX ",
" ......  XooooX  XooooX  XooooX  XooooX  XooooX  XooooX  XooooX ",
" ......  XooooX  XooooX  XooooX  XooooX  XooooX  XooooX  XooooX ",
" .XXXX.  XooooX  XooooX  XooooX  XooooX  XooooX  XooooX  XooooX ",
" XXXXXX  XooooX  XooooX  XooooX  XooooX  XooooX  XooooX  XooooX ",
" XXXXXX  XooooX  XooooX  XooooX  XooooX  XooooX  XooooX  XooooX ",
" XXooXX  XooooX  XooooX  XooooX  XooooX  XooooX  XooooX  XooooX ",
" XooooX  XooooX  XooooX  XooooX  XooooX  XooooX  XooooX  XooooX ",
" XooooX  XooooX  XooooX  XooooX  XooooX  XooooX  XooooX  XooooX ",
" XooooX  XooooX  XooooX  XooooX  XooooX  XooooX  XooooX  XooooX "
};
